<svg width="218" height="45" viewBox="0 0 218 45" fill="none" xmlns="http://www.w3.org/2000/svg">
<path d="M68.4788 36.6101V27.991L59.464 8.90597V8.77405H67.1596C68.0684 11.1487 68.7866 13.0543 69.3143 14.4908C69.8714 15.898 70.2965 17.012 70.5896 17.8329C70.9121 18.6244 71.1613 19.2694 71.3372 19.7677C71.5131 20.2661 71.7036 20.7938 71.9089 21.3508H72.0848C72.29 20.7938 72.4805 20.2661 72.6564 19.7677C72.8323 19.2694 73.0669 18.6244 73.36 17.8329C73.6825 17.012 74.1076 15.898 74.6353 14.4908C75.1923 13.0543 75.9252 11.1487 76.834 8.77405H84.5296V8.90597L75.5148 27.991V36.6101H68.4788Z" fill="white"/>
<path d="M94.2178 36.6101H87.1819V8.77405H100.462C103.951 8.77405 106.487 9.5656 108.07 11.1487C109.682 12.7025 110.488 15.0038 110.488 18.0527C110.488 20.3394 109.917 22.3036 108.773 23.9454C107.63 25.5578 106.12 26.5692 104.244 26.9796L104.2 27.1115C104.933 27.5806 105.739 28.3575 106.619 29.4422C107.498 30.5269 108.363 31.7142 109.213 33.0042C110.093 34.2648 110.87 35.4521 111.544 36.5661V36.6101H103.365L98.6153 29.5741C98.2049 28.9585 97.8677 28.5187 97.6039 28.2549C97.3694 27.991 97.0762 27.8298 96.7244 27.7712C96.4019 27.7125 95.8742 27.6832 95.1413 27.6832H94.2178V36.6101ZM99.3189 14.4908H94.2178V21.9665H99.3189C100.785 21.9665 101.796 21.6733 102.353 21.087C102.939 20.5007 103.233 19.5479 103.233 18.2286C103.233 16.9094 102.939 15.9566 102.353 15.3703C101.796 14.7839 100.785 14.4908 99.3189 14.4908Z" fill="white"/>
<path d="M122.561 36.6101H115.525V8.77405H127.926C130.711 8.77405 132.939 9.11119 134.61 9.78547C136.281 10.4597 137.483 11.5591 138.216 13.0836C138.949 14.608 139.315 16.6749 139.315 19.284C139.315 21.7466 138.949 23.7548 138.216 25.3086C137.483 26.833 136.281 27.9617 134.61 28.6946C132.939 29.4275 130.711 29.794 127.926 29.794H122.561V36.6101ZM126.783 14.5347H122.561V24.0333H126.783C128.864 24.0333 130.257 23.6815 130.96 22.9779C131.664 22.2743 132.016 21.043 132.016 19.284C132.016 17.613 131.664 16.411 130.96 15.6781C130.257 14.9159 128.864 14.5347 126.783 14.5347Z" fill="white"/>
<path d="M150.088 36.6101H143.052V8.77405H156.333C159.821 8.77405 162.357 9.5656 163.94 11.1487C165.553 12.7025 166.359 15.0038 166.359 18.0527C166.359 20.3394 165.787 22.3036 164.644 23.9454C163.5 25.5578 161.991 26.5692 160.114 26.9796L160.07 27.1115C160.803 27.5806 161.61 28.3575 162.489 29.4422C163.369 30.5269 164.233 31.7142 165.084 33.0042C165.963 34.2648 166.74 35.4521 167.414 36.5661V36.6101H159.235L154.486 29.5741C154.075 28.9585 153.738 28.5187 153.474 28.2549C153.24 27.991 152.947 27.8298 152.595 27.7712C152.272 27.7125 151.745 27.6832 151.012 27.6832H150.088V36.6101ZM155.189 14.4908H150.088V21.9665H155.189C156.655 21.9665 157.666 21.6733 158.223 21.087C158.81 20.5007 159.103 19.5479 159.103 18.2286C159.103 16.9094 158.81 15.9566 158.223 15.3703C157.666 14.7839 156.655 14.4908 155.189 14.4908Z" fill="white"/>
<path d="M171.395 36.6101V8.77405H192.063V14.4908H178.431V19.7677H190.26V25.4845H178.431V30.8934H192.063V36.6101H171.395Z" fill="white"/>
<path d="M201.949 36.6101V27.991L192.934 8.90597V8.77405H200.63C201.539 11.1487 202.257 13.0543 202.785 14.4908C203.342 15.898 203.767 17.012 204.06 17.8329C204.382 18.6244 204.632 19.2694 204.808 19.7677C204.983 20.2661 205.174 20.7938 205.379 21.3508H205.555C205.76 20.7938 205.951 20.2661 206.127 19.7677C206.303 19.2694 206.537 18.6244 206.83 17.8329C207.153 17.012 207.578 15.898 208.106 14.4908C208.663 13.0543 209.396 11.1487 210.304 8.77405H218V8.90597L208.985 27.991V36.6101H201.949Z" fill="white"/>
<path d="M29.3809 26.3053H27.6347V27.0634H29.3809V26.3053Z" fill="#868686"/>
<path d="M32.0381 28.7692L29.7041 26.4385C29.5261 26.2607 29.2375 26.2607 29.0594 26.4385L28.8449 26.6527L31.5013 29.3053L32.0381 28.7692Z" fill="#868686"/>
<path d="M13.21 23.0799H17.3097V23.8391H13.21V23.0799Z" fill="#868686"/>
<path d="M15.8672 26.3056H17.6134V27.0648H15.8672V26.3056Z" fill="#868686"/>
<path d="M13.21 28.773L15.5442 26.4387C15.7221 26.2609 16.0106 26.2609 16.1884 26.4387L16.4032 26.6535L13.7469 29.3098L13.21 28.773Z" fill="#868686"/>
<path d="M27.9385 23.0799H32.0382V23.8391H27.9385V23.0799Z" fill="#868686"/>
<path d="M29.3809 20.6936H27.1033V19.9344H29.3809V20.6936Z" fill="#868686"/>
<path d="M32.0381 18.2262L29.7039 20.5604C29.526 20.7383 29.2376 20.7383 29.0597 20.5604L28.8449 20.3456L31.5013 17.6893L32.0381 18.2262Z" fill="#868686"/>
<path d="M15.8672 20.6896H18.1448V19.9315H15.8672V20.6896Z" fill="#868686"/>
<path d="M13.21 18.2257L15.544 20.5564C15.722 20.7342 16.0106 20.7342 16.1886 20.5564L16.4031 20.3422L13.7468 17.6897L13.21 18.2257Z" fill="#868686"/>
<path d="M17.006 21.2578C17.006 19.5806 18.3656 18.221 20.0428 18.221H25.2813C26.9585 18.221 28.3181 19.5806 28.3181 21.2578V22.017H17.006V21.2578Z" fill="white"/>
<path d="M17.006 22.3207H19.7771C21.2237 22.3207 22.3963 23.4933 22.3963 24.9399V31.7347C19.4193 31.7347 17.006 29.3214 17.006 26.3444V22.3207Z" fill="white"/>
<path d="M22.9278 24.9399C22.9278 23.4933 24.1004 22.3207 25.547 22.3207H28.3181V26.3444C28.3181 29.3214 25.9048 31.7347 22.9278 31.7347V24.9399Z" fill="white"/>
<path d="M24.9776 17.9117C24.9776 17.3177 24.7417 16.748 24.3216 16.328C23.9016 15.908 23.332 15.672 22.738 15.672C22.144 15.672 21.5743 15.908 21.1543 16.328C20.7343 16.748 20.4983 17.3177 20.4983 17.9117H24.9776Z" fill="#868686"/>
<path d="M23.7629 15.9485L25.8198 13.1344L26.3617 13.5305L24.3048 16.3446L23.7629 15.9485Z" fill="#868686"/>
<path d="M19.5978 13.1667L21.6545 15.9809L21.1126 16.377L19.0559 13.5627L19.5978 13.1667Z" fill="#868686"/>
<path d="M42.4914 22.3788C42.4914 33.1738 33.6135 41.9249 22.6621 41.9249C11.7107 41.9249 2.83276 33.1738 2.83276 22.3788C2.83276 11.5838 11.7107 2.83278 22.6621 2.83278C33.6135 2.83278 42.4914 11.5838 42.4914 22.3788ZM6.78233 22.3788C6.78233 31.0237 13.8919 38.0317 22.6621 38.0317C31.4322 38.0317 38.5419 31.0237 38.5419 22.3788C38.5419 13.734 31.4322 6.72592 22.6621 6.72592C13.8919 6.72592 6.78233 13.734 6.78233 22.3788Z" fill="url(#paint0_linear_1208_779)"/>
<path d="M0 24.3883V20.4225H9.63139V24.3883H0Z" fill="url(#paint1_linear_1208_779)"/>
<path d="M24.692 9.63139H20.7261V0H24.692V9.63139Z" fill="url(#paint2_linear_1208_779)"/>
<path d="M24.692 44.7823H20.7261V35.1509H24.692V44.7823Z" fill="url(#paint3_linear_1208_779)"/>
<path d="M35.6824 24.3883V20.4225H45.3137V24.3883H35.6824Z" fill="url(#paint4_linear_1208_779)"/>
<path d="M29.3809 26.3053H27.6347V27.0634H29.3809V26.3053Z" fill="#868686"/>
<path d="M32.0381 28.7692L29.7041 26.4385C29.5261 26.2607 29.2375 26.2607 29.0594 26.4385L28.8449 26.6527L31.5013 29.3053L32.0381 28.7692Z" fill="#868686"/>
<path d="M13.21 23.0799H17.3097V23.8391H13.21V23.0799Z" fill="#868686"/>
<path d="M15.8672 26.3056H17.6134V27.0648H15.8672V26.3056Z" fill="#868686"/>
<path d="M13.21 28.773L15.5442 26.4387C15.7221 26.2609 16.0106 26.2609 16.1884 26.4387L16.4032 26.6535L13.7469 29.3098L13.21 28.773Z" fill="#868686"/>
<path d="M27.9385 23.0799H32.0382V23.8391H27.9385V23.0799Z" fill="#868686"/>
<path d="M29.3809 20.6936H27.1033V19.9344H29.3809V20.6936Z" fill="#868686"/>
<path d="M32.0381 18.2262L29.7039 20.5604C29.526 20.7383 29.2376 20.7383 29.0597 20.5604L28.8449 20.3456L31.5013 17.6893L32.0381 18.2262Z" fill="#868686"/>
<path d="M15.8672 20.6896H18.1448V19.9315H15.8672V20.6896Z" fill="#868686"/>
<path d="M13.21 18.2257L15.544 20.5564C15.722 20.7342 16.0106 20.7342 16.1886 20.5564L16.4031 20.3422L13.7468 17.6897L13.21 18.2257Z" fill="#868686"/>
<path d="M17.006 21.2578C17.006 19.5806 18.3656 18.221 20.0428 18.221H25.2813C26.9585 18.221 28.3181 19.5806 28.3181 21.2578V22.017H17.006V21.2578Z" fill="white"/>
<path d="M17.006 22.3207H19.7771C21.2237 22.3207 22.3963 23.4933 22.3963 24.9399V31.7347C19.4193 31.7347 17.006 29.3214 17.006 26.3444V22.3207Z" fill="white"/>
<path d="M22.9278 24.9399C22.9278 23.4933 24.1004 22.3207 25.547 22.3207H28.3181V26.3444C28.3181 29.3214 25.9048 31.7347 22.9278 31.7347V24.9399Z" fill="white"/>
<path d="M24.9776 17.9117C24.9776 17.3177 24.7417 16.748 24.3216 16.328C23.9016 15.908 23.332 15.672 22.738 15.672C22.144 15.672 21.5743 15.908 21.1543 16.328C20.7343 16.748 20.4983 17.3177 20.4983 17.9117H24.9776Z" fill="#868686"/>
<path d="M23.7629 15.9485L25.8198 13.1344L26.3617 13.5305L24.3048 16.3446L23.7629 15.9485Z" fill="#868686"/>
<path d="M19.5978 13.1667L21.6545 15.9809L21.1126 16.377L19.0559 13.5627L19.5978 13.1667Z" fill="#868686"/>
<path d="M42.4914 22.3788C42.4914 33.1738 33.6135 41.9249 22.6621 41.9249C11.7107 41.9249 2.83276 33.1738 2.83276 22.3788C2.83276 11.5838 11.7107 2.83278 22.6621 2.83278C33.6135 2.83278 42.4914 11.5838 42.4914 22.3788ZM6.78233 22.3788C6.78233 31.0237 13.8919 38.0317 22.6621 38.0317C31.4322 38.0317 38.5419 31.0237 38.5419 22.3788C38.5419 13.734 31.4322 6.72592 22.6621 6.72592C13.8919 6.72592 6.78233 13.734 6.78233 22.3788Z" fill="url(#paint5_linear_1208_779)"/>
<path d="M0 24.3883V20.4225H9.63139V24.3883H0Z" fill="url(#paint6_linear_1208_779)"/>
<path d="M24.692 9.63139H20.7261V0H24.692V9.63139Z" fill="url(#paint7_linear_1208_779)"/>
<path d="M24.692 44.7823H20.7261V35.1509H24.692V44.7823Z" fill="url(#paint8_linear_1208_779)"/>
<path d="M35.6824 24.3883V20.4225H45.3137V24.3883H35.6824Z" fill="url(#paint9_linear_1208_779)"/>
<defs>
<linearGradient id="paint0_linear_1208_779" x1="109" y1="0" x2="109" y2="44.7823" gradientUnits="userSpaceOnUse">
<stop stop-color="#ED145B"/>
<stop offset="1" stop-color="#FE0A45"/>
</linearGradient>
<linearGradient id="paint1_linear_1208_779" x1="109" y1="0" x2="109" y2="44.7823" gradientUnits="userSpaceOnUse">
<stop stop-color="#FF4646"/>
<stop offset="0.78125" stop-color="#ED145B"/>
</linearGradient>
<linearGradient id="paint2_linear_1208_779" x1="109" y1="0" x2="109" y2="44.7823" gradientUnits="userSpaceOnUse">
<stop stop-color="#FE0A45"/>
<stop offset="0.78125" stop-color="#ED145B"/>
</linearGradient>
<linearGradient id="paint3_linear_1208_779" x1="109" y1="0" x2="109" y2="44.7823" gradientUnits="userSpaceOnUse">
<stop offset="0.729167" stop-color="#FE0A45"/>
<stop offset="1" stop-color="#ED145B"/>
</linearGradient>
<linearGradient id="paint4_linear_1208_779" x1="35.6824" y1="22.4052" x2="45.3138" y2="22.4052" gradientUnits="userSpaceOnUse">
<stop offset="0.145833" stop-color="#FE0A45"/>
<stop offset="1" stop-color="#ED145B"/>
</linearGradient>
<linearGradient id="paint5_linear_1208_779" x1="109" y1="0" x2="109" y2="44.7823" gradientUnits="userSpaceOnUse">
<stop stop-color="#ED145B"/>
<stop offset="1" stop-color="#FE0A45"/>
</linearGradient>
<linearGradient id="paint6_linear_1208_779" x1="109" y1="0" x2="109" y2="44.7823" gradientUnits="userSpaceOnUse">
<stop stop-color="#FF4646"/>
<stop offset="0.78125" stop-color="#ED145B"/>
</linearGradient>
<linearGradient id="paint7_linear_1208_779" x1="109" y1="0" x2="109" y2="44.7823" gradientUnits="userSpaceOnUse">
<stop stop-color="#FE0A45"/>
<stop offset="0.78125" stop-color="#ED145B"/>
</linearGradient>
<linearGradient id="paint8_linear_1208_779" x1="109" y1="0" x2="109" y2="44.7823" gradientUnits="userSpaceOnUse">
<stop offset="0.729167" stop-color="#FE0A45"/>
<stop offset="1" stop-color="#ED145B"/>
</linearGradient>
<linearGradient id="paint9_linear_1208_779" x1="35.6824" y1="22.4052" x2="45.3138" y2="22.4052" gradientUnits="userSpaceOnUse">
<stop offset="0.145833" stop-color="#FE0A45"/>
<stop offset="1" stop-color="#ED145B"/>
</linearGradient>
</defs>
</svg>
